<?xml version="1.0" encoding="utf-8"?>
<!-- Svg Vector Icons : http://www.onlinewebfonts.com/icon -->
<!DOCTYPE svg PUBLIC "-//W3C//DTD SVG 1.1//EN" "http://www.w3.org/Graphics/SVG/1.1/DTD/svg11.dtd">
<svg version="1.1" xmlns="http://www.w3.org/2000/svg" xmlns:xlink="http://www.w3.org/1999/xlink" x="0px" y="0px" viewBox="0 0 1000 1000" enable-background="new 0 0 1000 1000" xml:space="preserve">
<metadata> Svg Vector Icons : http://www.onlinewebfonts.com/icon </metadata>
<g><g transform="translate(0.000000,512.000000) scale(0.100000,-0.100000)"><path d="M4546.4,4983.6c-91.9-55.5-103.4-118.7-103.4-557.1v-394.3l-229.7-103.4c-400.1-178-652.8-344.6-863.3-570.4c-279.5-296.7-467.1-700.6-516.8-1100.7c-61.3-509.2,181.9-1123.7,581.9-1474c220.1-193.3,472.8-333.1,823.1-453.7l128.3-45.9v-857.6v-859.5l-80.4,44c-187.6,105.3-285.2,241.2-436.4,612.6c-86.1,210.6-153.1,296.7-283.3,356c-218.2,99.5-472.8,57.4-614.5-103.4c-101.5-114.9-137.8-227.8-149.3-457.5c-19.1-384.8,118.7-729.3,425-1058.6c233.5-252.7,658.5-516.8,941.8-585.8c176.1-44,216.3-80.4,216.3-201c0-51.7-5.7-132.1-11.5-181.9l-13.4-88h-342.7h-344.6l-53.6-55.5c-63.2-63.2-86.1-132.1-68.9-204.8c11.5-45.9,413.5-472.8,1131.3-1207.9c281.4-287.1,312-287.1,593.4,0c717.8,735.1,1119.8,1162,1131.3,1207.9c17.2,72.7-5.7,141.7-68.9,204.8l-53.6,55.5h-346.5h-346.5v208.7v208.6l139.7,57.4c74.7,32.5,218.2,90,315.8,130.2C6648.3-2252.2,7069.4-1699,7180.5-1006c38.3,235.4,15.3,637.4-45.9,846.1c-101.5,338.8-281.4,618.3-545.6,851.8c-273.7,237.4-340.7,277.6-809.7,480.5l-187.6,80.4V2028v775.3l68.9-61.3c130.2-112.9,222.1-235.4,292.9-392.4c130.2-279.5,279.5-382.9,557.1-382.9c187.6,0,268,32.5,386.7,157c342.6,354.1,134,1054.7-440.3,1475.9c-204.8,149.3-338.8,216.3-645.1,321.6l-287.1,99.5l-9.6,428.8c-9.6,467.1-21.1,511.1-126.3,551.3c-26.8,11.5-214.4,19.1-415.4,19.1C4646,5020,4600.1,5016.2,4546.4,4983.6z M5227.9,4307.9c0-367.5,3.8-413.5,36.4-467.1c45.9-76.6,181.9-141.7,430.7-206.7c294.8-78.5,539.8-214.4,742.7-413.5c181.9-179.9,266.1-321.6,302.5-514.9c57.4-300.5-139.7-516.8-346.5-379c-36.4,23-135.9,137.8-222.1,252.7c-273.7,371.4-509.2,547.5-729.3,553.2c-93.8,1.9-107.2-3.8-158.9-61.3l-55.5-61.3v-947.5v-947.6l63.2-65.1c45.9-47.9,118.7-84.2,291-145.5c430.7-153.1,708.3-315.8,922.7-543.6c162.7-170.4,254.6-327.3,323.5-557.1c45.9-155,51.7-201,51.7-459.4c0-248.8-5.7-312-49.8-476.7c-72.7-271.8-197.2-518.8-340.7-671.9c-195.3-208.7-432.6-346.5-888.2-518.8c-199.1-74.7-281.4-116.8-319.7-160.8l-53.6-57.4v-373.3c0-365.6,0-371.4,45.9-425c45.9-53.6,45.9-53.6,344.6-63.2l298.6-9.6L5457.6-3910c-252.7-273.7-469-497.7-478.6-497.7c-9.6,0-225.9,224-478.6,497.7l-459.4,497.7l294.8,9.6c279.5,9.6,298.6,11.5,344.6,55.5l49.8,45.9v382.9v380.9l-63.2,63.2c-38.3,38.3-99.5,72.7-149.3,86.1c-201,51.7-459.4,147.4-616.4,225.9c-220.1,112.9-394.3,262.3-555.1,472.8c-298.6,394.3-379,719.8-220.1,901.6c187.6,212.5,352.2,139.7,522.6-231.6c187.6-409.7,266.1-522.6,453.7-647c231.6-153.1,509.2-178,603-53.6c17.2,22.9,23,287.1,24.9,1089.2V425.8l-61.3,65.1c-51.7,53.6-105.3,78.5-283.3,134c-654.7,201-1026,524.5-1162,1008.8c-47.9,172.3-47.9,664.2,0,838.4c45.9,168.5,112.9,327.3,187.6,453.7c137.8,227.8,423,484.3,687.2,622.1c47.9,23,189.5,78.5,315.9,122.5c327.3,111,315.8,88.1,315.8,624v419.2h248.8h248.9V4307.9z"/><path d="M4326.3,3050.2c-296.7-126.3-493.9-335-595.3-631.7c-63.2-183.8-61.3-536,1.9-698.7c86.1-218.2,386.7-442.2,683.4-511.1c90-21.1,107.2-19.1,187.6,21.1c149.3,70.8,145.5,49.8,145.5,918.8c0,865.2,1.9,848-139.7,916.9C4502.4,3117.2,4479.4,3115.3,4326.3,3050.2z M4443.1,2139.1c0-321.6-3.8-583.8-7.7-583.8c-3.8,0-70.8,24.9-147.4,57.4c-245,97.6-317.8,220.1-298.6,511.1c11.5,183.8,67,321.6,178,446c68.9,76.6,193.3,151.2,252.7,153.1C4437.3,2722.9,4443.1,2592.7,4443.1,2139.1z"/><path d="M5350.4,330.1c-23-7.7-59.3-40.2-82.3-68.9c-40.2-49.8-40.2-59.3-40.2-995.4V-1676l49.8-59.4c38.3-45.9,65.1-59.3,118.7-59.3c86.1,1.9,315.8,90,444.1,172.3c134,86.1,312,283.3,380.9,425c149.3,302.4,151.2,693,7.6,959c-68.9,122.5-271.8,329.3-426.9,430.7C5641.4,297.5,5427,362.6,5350.4,330.1z M5832.8-230.8c179.9-195.3,246.9-400.1,199.1-610.7c-36.4-155-132.1-317.8-258.4-442.2c-199.1-195.3-181.9-248.9-181.9,551.3v700.6l59.3-34.5C5683.5-85.3,5765.8-160,5832.8-230.8z"/></g></g>
</svg>